<?xml version="1.0" encoding="UTF-8"?>
<svg id="Layer_2" xmlns="http://www.w3.org/2000/svg" viewBox="0 0 1608.56 474.84">
  <defs>
    <style>
      .cls-1 {
        fill: none;
      }

      .cls-2 {
        fill: #fff;
      }
    </style>
  </defs>
  <g id="Layer_1-2" data-name="Layer_1">
    <g>
      <path class="cls-2" d="M410.49,63.73c6.04,6.05,9.39,14.13,9.39,22.68s-3.32,16.64-9.39,22.68c-12.49,12.5-32.83,12.5-45.32,0-6.04-6.05-9.39-14.1-9.39-22.68s3.32-16.64,9.39-22.68c6.26-6.27,14.46-9.4,22.66-9.4s16.43,3.13,22.66,9.4Z"/>
      <path class="cls-2" d="M63.85,411.02c-12.49-12.5-12.49-32.86,0-45.37,6.04-6.05,14.08-9.4,22.66-9.4s16.62,3.32,22.66,9.4c12.49,12.5,12.49,32.87,0,45.37-6.07,6.08-14.11,9.4-22.66,9.4s-16.62-3.32-22.66-9.4Z"/>
      <path class="cls-2" d="M308.11,66.23l-.22-.09c-6.82-2.88-12.14-8.24-14.96-15.1-2.88-6.92-2.88-14.54,0-21.49,2.88-6.92,8.26-12.31,15.18-15.2,3.47-1.44,7.11-2.16,10.74-2.16s7.29.72,10.73,2.16c14.3,5.92,21.09,22.37,15.18,36.69-5.92,14.32-22.34,21.12-36.65,15.2Z"/>
      <path class="cls-2" d="M155.61,406.45c3.63,0,7.26.72,10.7,2.13,14.3,5.92,21.09,22.37,15.18,36.69-2.88,6.93-8.26,12.34-15.18,15.2-6.92,2.88-14.52,2.88-21.47,0-14.3-5.92-21.09-22.37-15.18-36.69,2.88-6.92,8.26-12.34,15.18-15.2,3.47-1.44,7.1-2.16,10.73-2.16l.03.03Z"/>
      <path class="cls-2" d="M261.2,24.06c0,12.91-10.2,23.47-22.94,24.06h-1.09c-13.27,0-24.04-10.81-24.04-24.06S223.93,0,237.17,0s24.04,10.84,24.04,24.09v-.03Z"/>
      <path class="cls-2" d="M213.1,450.78c0-13.29,10.8-24.06,24.03-24.06s24.04,10.81,24.04,24.06-10.8,24.06-24.04,24.06-24.03-10.81-24.03-24.06Z"/>
      <path class="cls-2" d="M163.34,58.84c-4.94,2.04-10.36,2.04-15.34,0-4.98-2.07-8.83-5.92-10.86-10.87-4.22-10.24.63-21.99,10.86-26.22,2.5-1.03,5.07-1.54,7.64-1.54,7.89,0,15.34,4.7,18.56,12.41,2.03,4.98,2.03,10.43,0,15.35-2.03,4.98-5.88,8.84-10.86,10.87Z"/>
      <path class="cls-2" d="M310.97,416c2.5-1.04,5.1-1.57,7.7-1.57s5.2.53,7.67,1.53c4.98,2.07,8.83,5.92,10.86,10.87,2.04,4.98,2.04,10.43,0,15.35-2.03,4.98-5.88,8.83-10.86,10.87-4.97,2.04-10.39,2.04-15.36,0-4.98-2.04-8.83-5.89-10.86-10.87-2.03-4.98-2.03-10.4,0-15.35,2.04-4.95,5.89-8.8,10.86-10.84Z"/>
      <path class="cls-2" d="M97.8,75.29c6.17,6.17,6.26,16.1.31,22.4l-.34.34c-6.26,6.27-16.46,6.27-22.72,0-6.26-6.27-6.26-16.48,0-22.75,3.13-3.13,7.23-4.7,11.36-4.7s8.23,1.57,11.36,4.7h.03Z"/>
      <path class="cls-2" d="M376.34,376.9c3.1-3.13,7.23-4.7,11.33-4.7s8.23,1.57,11.36,4.7c3.04,3.01,4.69,7.05,4.69,11.34s-1.66,8.33-4.69,11.37c-6.26,6.3-16.43,6.27-22.72,0-3.04-3.04-4.69-7.11-4.69-11.37s1.66-8.3,4.69-11.34h.03Z"/>
      <path class="cls-2" d="M32.61,174.29c-10.23-4.23-15.08-16.01-10.86-26.22,2.03-4.98,5.88-8.84,10.86-10.87,2.5-1,5.1-1.54,7.7-1.54s5.2.5,7.67,1.54c10.23,4.23,15.09,16.01,10.86,26.22-2.03,4.98-5.88,8.84-10.86,10.87-4.98,2.04-10.42,2.04-15.34,0h-.03Z"/>
      <path class="cls-2" d="M441.79,300.61c4.97,2.04,8.82,5.89,10.86,10.87,2.03,4.98,2.03,10.4,0,15.35-4.23,10.21-15.96,15.1-26.2,10.84-4.98-2.04-8.82-5.89-10.86-10.87-2.03-4.98-2.03-10.4,0-15.35,3.19-7.71,10.67-12.38,18.56-12.38,2.54,0,5.13.5,7.64,1.54Z"/>
      <path class="cls-2" d="M0,237.54c0-13.28,10.8-24.06,24.04-24.06s24.04,10.81,24.04,24.06-10.8,24.06-24.04,24.06S0,250.8,0,237.54Z"/>
      <path class="cls-2" d="M426.26,237.54c0-13.28,10.8-24.06,24.04-24.06s24.04,10.81,24.04,24.06-10.8,24.06-24.04,24.06-24.04-10.81-24.04-24.06Z"/>
      <path class="cls-2" d="M14.24,329.81c-5.92-14.32.88-30.73,15.18-36.69,6.92-2.88,14.52-2.88,21.47,0,6.92,2.88,12.3,8.27,15.18,15.2,2.88,6.93,2.88,14.54,0,21.49-2.88,6.92-8.26,12.31-15.18,15.2-6.92,2.88-14.52,2.88-21.47,0-6.92-2.88-12.3-8.27-15.18-15.2Z"/>
      <path class="cls-2" d="M408.04,166.49c-2.85-6.92-2.85-14.54,0-21.46,2.88-6.92,8.26-12.31,15.18-15.2,3.47-1.47,7.1-2.16,10.67-2.16,11.02,0,21.47,6.52,25.95,17.33,5.92,14.32-.88,30.73-15.18,36.69-6.92,2.88-14.52,2.88-21.47,0-6.92-2.88-12.3-8.27-15.18-15.2h.03Z"/>
      <path class="cls-2" d="M305.36,305.69c-8.79,8.77-8.79,23.09,0,31.86,8.79,8.8,23.07,8.8,31.86,0,4.26-4.26,6.6-9.9,6.6-15.92s-2.35-11.69-6.6-15.91c-4.38-4.39-10.14-6.58-15.9-6.58s-11.58,2.19-15.96,6.55h0Z"/>
      <path class="cls-2" d="M117.55,223.79c-9.51-2.54-15.15-12.34-12.61-21.87,1.25-4.61,4.19-8.46,8.33-10.84,2.72-1.6,5.79-2.41,8.86-2.41,1.53,0,3.1.19,4.63.6,4.6,1.25,8.45,4.2,10.83,8.33,2.38,4.14,3,8.96,1.78,13.57-2.53,9.52-12.33,15.2-21.85,12.63h.03Z"/>
      <path class="cls-2" d="M347.49,285.48c-4.6-1.25-8.45-4.2-10.83-8.33-2.38-4.14-3-8.96-1.78-13.57,1.25-4.61,4.19-8.46,8.32-10.84,2.75-1.6,5.82-2.41,8.89-2.41,1.28,0,2.56.13,3.82.41l.85.22c9.51,2.54,15.15,12.38,12.61,21.87-1.25,4.61-4.19,8.46-8.32,10.84-4.13,2.38-8.95,3.04-13.55,1.79v.03Z"/>
      <path class="cls-2" d="M108.41,271.95c-1.97-7.36,2.16-14.91,9.3-17.3l.81-.22c7.61-2.07,15.46,2.51,17.49,10.12,1,3.7.5,7.55-1.44,10.87-1.91,3.29-5.01,5.67-8.67,6.67-3.69,1-7.51.5-10.86-1.44-3.29-1.91-5.66-5.01-6.67-8.68l.03-.03Z"/>
      <path class="cls-2" d="M344.92,219.06l-.63-.38c-2.97-1.94-5.1-4.86-6.01-8.3-2.03-7.64,2.47-15.48,10.11-17.55,7.57-2.04,15.46,2.51,17.49,10.12,2.03,7.61-2.47,15.48-10.11,17.51-3.69,1-7.51.47-10.86-1.44v.03Z"/>
      <path class="cls-2" d="M160.96,328.65l-.41.41c-4.19,4.2-11.02,4.2-15.21,0-4.19-4.2-4.19-10.99,0-15.2,4.19-4.2,11.02-4.2,15.21,0,2.03,2.04,3.16,4.73,3.16,7.61,0,2.69-.97,5.2-2.75,7.18Z"/>
      <path class="cls-2" d="M328.84,145.53c2.03,2.04,3.16,4.73,3.16,7.61s-1.13,5.58-3.16,7.61c-4.19,4.2-11.02,4.2-15.21,0-2.03-2.07-3.16-4.73-3.16-7.61s1.13-5.58,3.16-7.61c2.07-2.04,4.73-3.16,7.61-3.16s5.57,1.1,7.61,3.13v.03Z"/>
      <path class="cls-2" d="M218.7,345.32c1.91,3.29,2.41,7.18,1.44,10.87-1,3.7-3.35,6.77-6.67,8.68-3.32,1.91-7.17,2.41-10.86,1.44-7.61-2.04-12.14-9.9-10.11-17.51,1-3.7,3.35-6.77,6.67-8.68,3.29-1.91,7.14-2.41,10.86-1.44,3.69,1,6.76,3.35,8.67,6.67v-.03Z"/>
      <path class="cls-2" d="M255.51,129.58c-1.91-3.29-2.41-7.17-1.44-10.87,1-3.7,3.35-6.77,6.67-8.68,2.19-1.25,4.63-1.91,7.1-1.91,1.25,0,2.47.16,3.72.47,3.69,1,6.76,3.35,8.67,6.67,1.91,3.29,2.41,7.17,1.44,10.87-2.03,7.61-9.89,12.16-17.49,10.12-3.69-1-6.76-3.35-8.67-6.67Z"/>
      <path class="cls-2" d="M276.98,337.08l.75.44c3.73,2.41,6.38,6.08,7.54,10.37,2.54,9.52-3.1,19.33-12.61,21.87-4.63,1.26-9.42.6-13.55-1.78-4.13-2.38-7.07-6.24-8.32-10.84-1.25-4.61-.6-9.43,1.78-13.57,2.38-4.13,6.23-7.08,10.83-8.33,1.57-.41,3.13-.59,4.67-.59,3.1,0,6.13.81,8.89,2.41l.03.03Z"/>
      <path class="cls-2" d="M210.97,139.64c-9.48,2.54-19.28-3.13-21.85-12.63-2.53-9.52,3.1-19.33,12.61-21.87,1.53-.41,3.07-.6,4.6-.6,7.89,0,15.12,5.26,17.24,13.22,2.53,9.52-3.1,19.33-12.61,21.87Z"/>
      <path class="cls-2" d="M153.01,175.51c12.41,0,22.47-10.07,22.47-22.49s-10.06-22.49-22.47-22.49-22.47,10.07-22.47,22.49,10.06,22.49,22.47,22.49Z"/>
    </g>
    <g>
      <path class="cls-2" d="M536.58,47.31h89.16c48.17,0,80.4,28.11,80.4,72.02,0,27.83-14.7,50.07-37.53,60.9l43.15,83.46h-51.91l-36.92-72.66h-39.42v72.66h-46.93V47.31ZM583.51,85.94v66.46h38.49c22.22,0,36.28-12.98,36.28-33.07s-14.06-33.39-36.28-33.39h-38.49Z"/>
      <path class="cls-2" d="M718.44,184.54c0-49.47,32.83-81.59,82.57-81.59s80.72,29.66,81.33,76.35c0,4.65-.32,9.89-1.25,14.85h-116.68v2.15c.93,22.55,15.63,36.17,37.85,36.17,17.84,0,30.34-7.74,34.11-22.55h43.48c-5.02,30.93-32.83,55.63-75.7,55.63-53.48,0-85.71-31.84-85.71-80.99ZM837.93,165.68c-3.13-19.46-16.59-30.29-36.6-30.29s-33.47,11.44-35.97,30.29h72.57Z"/>
      <path class="cls-2" d="M1009.81,104.84h44.12v158.89h-39.1l-4.06-19.17c-10.32,12.35-24.39,21.01-47.25,21.01-33.15,0-63.81-16.39-63.81-72.66v-88.1h44.12v82.23c0,28.43,9.4,42.36,31.3,42.36s34.72-15.76,34.72-45.14v-79.45l-.03.03Z"/>
      <path class="cls-2" d="M1080.01,60.42h44.12v44.51h36.6v36.8h-36.6v69.56c0,11.12,4.38,15.77,15.63,15.77h22.83v36.77h-36.6c-30.66,0-45.97-15.13-45.97-45.42V60.42Z"/>
      <path class="cls-2" d="M1169.86,184.54c0-49.47,32.83-81.59,82.57-81.59s80.72,29.66,81.33,76.35c0,4.65-.32,9.89-1.25,14.85h-116.68v2.15c.93,22.55,15.63,36.17,37.85,36.17,17.84,0,30.34-7.74,34.11-22.55h43.47c-5.02,30.93-32.83,55.63-75.7,55.63-53.48,0-85.7-31.84-85.7-80.99ZM1289.36,165.68c-3.13-19.46-16.59-30.29-36.6-30.29s-33.47,11.44-35.96,30.29h72.57Z"/>
      <path class="cls-2" d="M1451.32,104.8v39.58h-17.52c-26.28,0-36.28,17.31-36.28,41.41v77.9h-44.12V104.8h40.06l4.06,23.79c8.76-14.21,21.26-23.79,46.29-23.79h7.51Z"/>
      <path class="cls-2" d="M1500.28,210.87c1.57,13.9,13.74,23.5,35.35,23.5,18.45,0,29.73-5.88,29.73-16.99,0-12.98-10.94-13.9-36.92-17.31-37.53-4.33-66.62-12.67-66.62-45.42s27.84-52.25,69.11-51.93c43.16,0,72.89,18.86,75.09,51.3h-42.23c-1.25-12.67-13.46-20.41-31.29-20.41s-28.45,6.19-28.45,16.4c0,12.07,13.78,13.3,36.92,16.08,36.92,3.69,67.58,12.07,67.58,47.92,0,31.52-30.02,51.62-73.21,51.62s-75.06-20.72-76.94-54.71h41.91l-.03-.03Z"/>
    </g>
    <g>
      <rect class="cls-1" x="527.58" y="282.68" width="1074.47" height="144.85"/>
      <path class="cls-2" d="M533.6,369.37c0-9.06,1.32-17.26,3.96-24.6,2.64-7.34,6.54-13.64,11.7-18.92,5.16-5.27,11.52-9.34,19.09-12.21,7.57-2.86,16.34-4.3,26.32-4.3,6.99,0,13.44.58,19.35,1.72,5.9,1.15,11.67,2.87,17.29,5.16l-3.27,17.37c-4.82-1.72-9.8-3.12-14.96-4.21-5.16-1.09-10.66-1.63-16.51-1.63-13.88,0-24.25,3.64-31.13,10.92-6.88,7.28-10.32,17.57-10.32,30.87s3.32,23.45,9.98,30.44c6.65,7,16.4,10.49,29.24,10.49,2.98,0,5.9-.11,8.77-.34,2.87-.23,5.45-.63,7.74-1.2v-35.95h20.3v49.54c-1.95.69-4.33,1.38-7.14,2.06-2.81.69-5.85,1.29-9.12,1.81-3.27.52-6.68.92-10.23,1.2-3.56.29-7.05.43-10.49.43-10.32,0-19.26-1.52-26.83-4.56-7.57-3.04-13.85-7.19-18.83-12.47-4.99-5.27-8.72-11.46-11.18-18.58-2.47-7.11-3.7-14.79-3.7-23.05Z"/>
      <path class="cls-2" d="M760.64,347.18c0,7.91-2.12,14.85-6.36,20.81-4.24,5.96-10.09,10.26-17.54,12.9l30.79,45.06h-27l-27.35-42.83h-21.33v42.83h-21.5v-114.55h52.46c5.96,0,11.29.86,16,2.58,4.7,1.72,8.69,4.16,11.95,7.31,3.27,3.16,5.73,6.94,7.4,11.35,1.66,4.42,2.49,9.26,2.49,14.53ZM739.14,347.18c0-5.85-1.78-10.38-5.33-13.59-3.56-3.21-8.31-4.82-14.28-4.82h-27.69v37.32h27.69c5.96,0,10.72-1.63,14.28-4.9,3.55-3.27,5.33-7.94,5.33-14.02Z"/>
      <path class="cls-2" d="M833.91,311.41h23.91l41.97,114.55h-21.84l-9.12-27h-45.92l-9.12,27h-21.84l41.97-114.55ZM828.92,380.89h33.88l-16.86-50.22-17.03,50.22Z"/>
      <path class="cls-2" d="M930.57,311.41h49.71c5.96,0,11.27.92,15.91,2.75,4.64,1.84,8.6,4.39,11.87,7.65s5.76,7.11,7.48,11.52c1.72,4.42,2.58,9.2,2.58,14.36s-.89,9.8-2.67,14.28c-1.78,4.47-4.3,8.37-7.57,11.7-3.27,3.33-7.25,5.93-11.95,7.83-4.7,1.89-9.92,2.84-15.65,2.84h-28.21v41.62h-21.5v-114.55ZM977.53,366.96c5.85,0,10.49-1.69,13.93-5.07,3.44-3.38,5.16-8.11,5.16-14.19s-1.75-10.75-5.25-14.02c-3.5-3.27-8.17-4.9-14.02-4.9h-25.28v38.18h25.46Z"/>
      <path class="cls-2" d="M1051.14,311.41h21.5v46.96h50.22v-46.96h21.5v114.55h-21.5v-48.5h-50.22v48.5h-21.5v-114.55Z"/>
      <path class="cls-2" d="M1186.5,311.41h21.5v114.55h-21.5v-114.55Z"/>
      <path class="cls-2" d="M1244.12,368.68c0-9.17,1.35-17.43,4.04-24.77,2.69-7.34,6.54-13.56,11.52-18.66,4.99-5.1,10.98-9.03,17.97-11.78,6.99-2.75,14.79-4.13,23.39-4.13,7.22,0,13.61.66,19.18,1.98,5.56,1.32,10.06,2.78,13.5,4.39l-3.27,17.03c-3.56-1.38-7.57-2.52-12.04-3.44-4.47-.92-8.72-1.38-12.73-1.38-12.96,0-22.88,3.41-29.76,10.23-6.88,6.82-10.32,17-10.32,30.53s3.44,23.71,10.32,30.53c6.88,6.82,16.8,10.23,29.76,10.23,4.01,0,8.26-.46,12.73-1.38,4.47-.92,8.48-2.06,12.04-3.44l3.27,17.03c-3.44,1.61-7.94,3.07-13.5,4.39-5.56,1.32-11.95,1.98-19.18,1.98-8.6,0-16.4-1.38-23.39-4.13-7-2.75-12.99-6.68-17.97-11.78-4.99-5.1-8.83-11.32-11.52-18.66-2.7-7.34-4.04-15.59-4.04-24.77Z"/>
      <path class="cls-2" d="M1448.46,393.28c0,11.01-3.87,19.55-11.61,25.63-7.74,6.08-18.55,9.12-32.42,9.12-6.88,0-13.93-.77-21.16-2.32-7.22-1.55-13.82-3.58-19.78-6.11l4.64-17.37c5.85,2.41,11.9,4.36,18.15,5.85,6.25,1.49,12.24,2.24,17.97,2.24,6.88,0,12.35-1.09,16.43-3.27,4.07-2.18,6.11-5.96,6.11-11.35,0-2.64-.46-4.84-1.38-6.62-.92-1.78-2.35-3.32-4.3-4.64-1.95-1.32-4.53-2.46-7.74-3.44-3.21-.97-7.11-1.98-11.7-3.01-6.42-1.38-12.01-2.98-16.77-4.82-4.76-1.83-8.77-4.13-12.04-6.88s-5.71-5.99-7.31-9.72c-1.61-3.73-2.41-8.11-2.41-13.16,0-6.3,1.03-11.64,3.1-16,2.06-4.36,4.96-7.88,8.69-10.58,3.73-2.69,8.2-4.61,13.42-5.76,5.22-1.15,11.04-1.72,17.46-1.72,7.68,0,14.62.66,20.81,1.98,6.19,1.32,12.1,3.3,17.72,5.93l-3.96,17.2c-4.93-2.18-10.35-3.98-16.25-5.42-5.91-1.43-11.9-2.15-17.97-2.15-7.11,0-12.47,1-16.08,3.01-3.61,2.01-5.42,5.76-5.42,11.27,0,2.41.46,4.44,1.38,6.11.92,1.66,2.38,3.1,4.39,4.3,2,1.2,4.61,2.32,7.83,3.35,3.21,1.03,7.17,2.12,11.87,3.27,6.19,1.49,11.67,3.13,16.43,4.9,4.76,1.78,8.77,3.99,12.04,6.62,3.27,2.64,5.73,5.85,7.4,9.63,1.66,3.78,2.49,8.43,2.49,13.93Z"/>
    </g>
  </g>
</svg>